<svg width="1280" height="360" viewBox="0 0 1280 360" fill="none" xmlns="http://www.w3.org/2000/svg" role="img" aria-labelledby="title desc">
  <title id="title">Valoriza Aê</title>
  <desc id="desc">Banner do sistema de moeda estudantil Valoriza Aê</desc>
  <defs>
    <linearGradient id="bg" x1="0" y1="0" x2="1280" y2="360" gradientUnits="userSpaceOnUse">
      <stop stop-color="#0B3B5C"/>
      <stop offset="0.58" stop-color="#10513F"/>
      <stop offset="1" stop-color="#1F7A5F"/>
    </linearGradient>
    <linearGradient id="coin" x1="0" y1="0" x2="1" y2="1">
      <stop stop-color="#FFD23F"/>
      <stop offset="1" stop-color="#F4A300"/>
    </linearGradient>
    <filter id="shadow" x="-20%" y="-20%" width="140%" height="140%">
      <feDropShadow dx="0" dy="18" stdDeviation="18" flood-color="#061C18" flood-opacity="0.28"/>
    </filter>
  </defs>
  <rect width="1280" height="360" rx="34" fill="url(#bg)"/>
  <path d="M-60 330C190 216 340 396 574 268C808 140 1030 170 1334 68" stroke="#FFD23F" stroke-opacity="0.18" stroke-width="64" stroke-linecap="round"/>
  <path d="M-80 112C152 190 326 40 556 90C786 140 936 42 1320 114" stroke="#FFFFFF" stroke-opacity="0.08" stroke-width="54" stroke-linecap="round"/>
  <g filter="url(#shadow)" transform="translate(96 75)">
    <path d="M96 8L187 49L96 90L5 49L96 8Z" fill="#062F50"/>
    <path d="M35 75C51 55 71 45 96 45C121 45 141 55 157 75V111C141 91 121 81 96 81C71 81 51 91 35 111V75Z" fill="#062F50"/>
    <path d="M174 56V123" stroke="#062F50" stroke-width="13" stroke-linecap="round"/>
    <path d="M174 123L160 173H188L174 123Z" fill="#062F50"/>
    <circle cx="96" cy="142" r="70" fill="url(#coin)" stroke="#FFF6CF" stroke-width="10"/>
    <circle cx="96" cy="142" r="48" fill="#FFD23F" fill-opacity="0.18" stroke="#FFF6CF" stroke-opacity="0.72" stroke-width="5"/>
  </g>
  <g transform="translate(310 78)">
    <text x="0" y="72" fill="#FFFFFF" font-family="Inter,Segoe UI,Arial,sans-serif" font-size="66" font-weight="900" letter-spacing="0">Valoriza Aê</text>
    <text x="0" y="126" fill="#D9EBE4" font-family="Inter,Segoe UI,Arial,sans-serif" font-size="29" font-weight="700">Moeda estudantil com reconhecimento, benefícios e validação real.</text>
    <g transform="translate(0 172)">
      <rect width="178" height="44" rx="22" fill="#FFD23F"/>
      <text x="24" y="29" fill="#173F34" font-family="Inter,Segoe UI,Arial,sans-serif" font-size="17" font-weight="900">React + Quarkus</text>
      <rect x="194" width="132" height="44" rx="22" fill="#FFFFFF" fill-opacity="0.14" stroke="#FFFFFF" stroke-opacity="0.24"/>
      <text x="220" y="29" fill="#FFFFFF" font-family="Inter,Segoe UI,Arial,sans-serif" font-size="17" font-weight="800">RabbitMQ</text>
      <rect x="342" width="112" height="44" rx="22" fill="#FFFFFF" fill-opacity="0.14" stroke="#FFFFFF" stroke-opacity="0.24"/>
      <text x="368" y="29" fill="#FFFFFF" font-family="Inter,Segoe UI,Arial,sans-serif" font-size="17" font-weight="800">WAHA</text>
      <rect x="470" width="128" height="44" rx="22" fill="#FFFFFF" fill-opacity="0.14" stroke="#FFFFFF" stroke-opacity="0.24"/>
      <text x="496" y="29" fill="#FFFFFF" font-family="Inter,Segoe UI,Arial,sans-serif" font-size="17" font-weight="800">EmailJS</text>
    </g>
  </g>
</svg>
